<?xml version="1.0" standalone="no"?>
<!DOCTYPE svg PUBLIC "-//W3C//DTD SVG 20010904//EN"
 "http://www.w3.org/TR/2001/REC-SVG-20010904/DTD/svg10.dtd">
<svg version="1.0" xmlns="http://www.w3.org/2000/svg"
 width="382.000000pt" height="395.000000pt" viewBox="0 0 382.000000 395.000000"
 preserveAspectRatio="xMidYMid meet">

<g transform="translate(0.000000,395.000000) scale(0.100000,-0.100000)"
fill="#000000" stroke="none">
<path d="M1710 3793 c-238 -36 -391 -80 -564 -162 -194 -92 -347 -199 -500
-349 -206 -202 -353 -440 -445 -719 -21 -62 -40 -111 -42 -109 -2 2 -5 -10 -5
-27 -1 -18 -9 -68 -18 -112 -9 -44 -18 -143 -21 -220 -3 -77 -8 -178 -10 -224
-2 -52 0 -79 6 -70 6 10 9 8 9 -10 0 -18 -3 -21 -13 -13 -12 10 -29 124 -41
262 -2 25 -3 -22 -1 -105 6 -269 60 -497 176 -743 179 -381 511 -708 909 -894
72 -34 213 -88 228 -88 3 0 -2 8 -10 18 -21 25 -92 151 -110 197 -62 152 -60
254 8 475 45 143 84 228 170 371 68 113 118 179 136 179 15 0 4 -22 -67 -129
-109 -165 -198 -375 -235 -555 -40 -195 -21 -278 108 -478 32 -48 61 -86 67
-85 17 6 4 100 -22 152 l-25 50 25 -30 25 -30 6 35 c3 19 14 120 24 225 l20
189 -54 77 c-58 82 -66 109 -34 109 22 0 26 -10 10 -26 -7 -7 4 -31 31 -73 47
-72 54 -70 65 19 6 53 38 166 91 320 43 127 168 338 188 318 4 -4 -6 -26 -23
-50 -157 -230 -255 -635 -279 -1164 -7 -164 -22 -145 127 -169 296 -49 645
-20 915 75 93 33 289 127 366 176 290 182 570 495 704 789 51 111 96 237 91
252 -3 8 -2 12 3 8 9 -5 14 10 26 72 2 13 -2 26 -8 29 -7 4 -9 4 -5 -1 4 -4 0
-14 -10 -22 -16 -12 -15 -13 3 -7 20 7 20 7 0 -9 -11 -8 -21 -14 -23 -12 -2 2
11 79 27 171 36 196 40 337 16 529 -33 266 -113 498 -254 735 -79 132 -233
315 -355 423 -254 224 -615 385 -956 427 -79 9 -394 12 -450 3z m405 -458 c43
-10 124 -14 284 -15 l224 0 -24 -26 c-24 -25 -24 -25 -166 -22 -79 2 -143 1
-143 -2 0 -3 16 -16 35 -29 l36 -24 225 6 c233 6 241 5 190 -33 -16 -11 -62
-16 -191 -20 l-170 -5 36 -22 c31 -20 50 -23 129 -23 92 0 93 0 75 -20 -14
-15 -31 -20 -72 -20 -29 0 -53 -2 -53 -4 0 -2 34 -54 75 -117 68 -101 80 -127
76 -152 -1 -4 8 -33 18 -65 31 -91 53 -314 33 -326 -5 -3 -24 11 -43 31 -19
21 -26 31 -17 24 15 -11 19 -11 24 3 9 24 -14 168 -43 266 -41 138 -34 130
-125 130 l-79 0 -102 102 c-114 113 -96 105 30 -14 l83 -78 70 0 c38 0 70 2
70 5 0 13 -40 82 -54 94 -9 8 -27 10 -51 5 -35 -6 -38 -4 -146 101 -109 107
-110 107 -152 102 -34 -3 -51 1 -90 26 -41 25 -55 29 -98 25 -40 -4 -57 -12
-84 -38 -19 -19 -37 -31 -40 -28 -6 6 43 51 73 67 38 20 110 13 150 -14 27
-18 50 -25 87 -25 50 -1 51 -2 159 -104 91 -86 113 -102 132 -97 13 3 24 10
25 15 3 16 -100 123 -172 178 -85 65 -168 96 -274 105 -101 8 -144 -7 -217
-76 l-62 -58 39 -34 c90 -79 107 -110 86 -163 -8 -22 -8 -32 -1 -34 6 -2 30
-18 52 -36 74 -56 103 -150 77 -243 -7 -27 -13 -50 -13 -52 -1 -2 31 -3 70 -2
181 6 315 -115 330 -300 17 -195 -62 -358 -233 -485 -216 -160 -526 -271 -958
-344 -173 -29 -164 -35 -109 73 60 116 201 374 270 492 149 254 304 415 491
509 88 44 116 87 116 176 0 61 -17 101 -60 142 -49 47 -103 59 -261 61 -133 2
-141 3 -110 16 22 9 77 15 162 16 107 1 132 4 140 18 16 26 -1 32 -77 30 -135
-5 -263 -43 -349 -104 -16 -12 -32 -19 -35 -15 -8 8 16 65 48 111 63 91 123
136 227 169 59 18 78 30 115 72 50 56 117 94 180 105 63 10 67 10 132 -6z
m-71 -177 c9 -12 16 -28 16 -35 0 -20 -30 -43 -59 -43 -34 0 -51 17 -51 50 0
14 5 31 12 38 20 20 65 14 82 -10z m238 -246 c7 -10 57 -60 110 -110 86 -82
101 -92 124 -86 19 5 25 4 20 -5 -17 -27 -58 -11 -109 44 -27 30 -70 71 -93
91 -36 29 -47 33 -63 24 -15 -7 -23 -6 -35 6 -21 20 -20 31 2 43 24 14 29 14
44 -7z m-175 -42 c17 0 25 -32 11 -41 -12 -8 -43 9 -33 19 3 3 -7 21 -22 41
l-26 36 29 -27 c17 -16 35 -28 41 -28z m74 -120 c10 -6 19 -18 20 -28 1 -9 68
-79 150 -155 l149 -139 -2 -51 -2 -52 -3 46 c-4 45 -9 51 -142 182 -124 122
-141 136 -177 139 -42 3 -56 26 -34 53 15 18 16 18 41 5z m159 -5 c6 -8 9 -18
6 -23 -3 -6 1 -15 9 -22 8 -7 15 -18 15 -24 0 -6 -6 -4 -13 5 -7 9 -21 18 -31
20 -28 6 -45 37 -26 49 20 13 26 12 40 -5z m240 -432 c0 -83 5 -173 11 -200
13 -57 4 -82 -66 -173 -121 -156 -320 -291 -529 -356 -66 -21 -123 -70 -132
-113 -3 -14 -14 -59 -26 -100 -41 -148 -34 -378 18 -571 25 -91 109 -324 124
-345 5 -5 19 -37 32 -70 14 -33 43 -93 66 -133 50 -89 53 -106 10 -65 -18 17
-64 51 -103 75 -238 147 -323 240 -354 386 -6 29 -11 106 -11 170 0 96 5 139
29 237 16 66 39 140 51 165 23 51 21 35 -10 -65 -29 -95 -38 -160 -39 -289 -2
-196 28 -299 114 -394 46 -51 212 -172 235 -172 6 0 -5 30 -24 67 -20 37 -36
72 -36 79 0 6 -18 55 -41 110 -108 262 -142 551 -95 799 8 39 12 73 10 76 -6
11 20 56 59 102 26 32 55 51 114 76 155 65 262 122 330 173 86 67 180 161 221
223 l32 48 0 207 0 207 -57 55 c-32 30 -76 74 -98 99 -22 24 6 -1 63 -56 l102
-100 0 -152z m15 269 c0 -12 14 -39 29 -60 l29 -37 -32 30 c-29 27 -61 74 -61
90 0 4 8 5 18 3 10 -2 17 -13 17 -26z m110 -255 c0 -75 -24 -171 -36 -141 -9
23 -11 196 -3 219 6 15 8 15 23 0 11 -11 16 -34 16 -78z m-195 -253 c0 -17 -5
-24 -20 -24 -22 0 -27 29 -8 48 16 16 28 6 28 -24z m1185 -594 c-3 -5 -11 -10
-16 -10 -6 0 -7 5 -4 10 3 6 11 10 16 10 6 0 7 -4 4 -10z m-1742 -15 c-3 -9
-8 -14 -10 -11 -3 3 -2 9 2 15 9 16 15 13 8 -4z m-503 -57 c-25 -23 -120 -115
-211 -205 -162 -160 -166 -165 -165 -204 0 -30 -5 -45 -19 -55 -46 -34 -113 3
-100 54 10 42 24 52 69 52 39 0 47 5 141 101 123 124 312 299 322 299 4 0 -12
-19 -37 -42z m474 -28 c-24 -88 -29 -263 -10 -343 27 -116 112 -255 167 -272
19 -6 27 -35 10 -35 -14 0 -106 103 -133 150 -59 101 -85 246 -68 375 11 79
38 191 45 184 2 -2 -3 -29 -11 -59z m1726 -30 c0 -5 -5 -10 -11 -10 -5 0 -7 5
-4 10 3 6 8 10 11 10 2 0 4 -4 4 -10z m-10 -24 c0 -2 -7 -7 -16 -10 -8 -3 -12
-2 -9 4 6 10 25 14 25 6z m-24 -61 c1 -8 -3 -18 -8 -22 -6 -3 -8 -1 -4 5 3 5
1 12 -6 14 -6 2 -8 10 -4 17 9 14 19 8 22 -14z m-1018 -103 c5 -31 -15 -52
-47 -52 -15 0 -42 -13 -61 -30 -52 -44 -60 -36 -12 13 23 23 42 50 42 58 0 43
72 53 78 11z m-377 -10 c3 -30 11 -45 36 -66 15 -13 25 -27 22 -31 -4 -3 -20
6 -37 20 -16 14 -41 25 -56 25 -16 0 -30 8 -37 22 -10 18 -8 24 11 40 17 13
26 15 41 8 10 -6 19 -14 20 -18z m-475 -73 c9 -16 -12 -33 -31 -25 -14 5 -15
9 -5 21 15 18 26 19 36 4z m652 -33 c5 -45 -47 -65 -68 -26 -16 31 4 62 38 58
21 -2 28 -9 30 -32z m-98 -29 c0 -6 -79 -87 -84 -87 -11 0 8 42 30 65 19 21
54 35 54 22z m189 -44 c17 -21 27 -39 22 -41 -10 -3 -70 57 -71 71 0 17 21 4
49 -30z m461 2 c0 -8 -6 -15 -14 -15 -17 0 -28 14 -19 24 12 12 33 6 33 -9z
m-107 -67 c14 -11 23 -88 18 -153 -1 -5 -28 -10 -62 -10 -64 0 -89 16 -89 57
0 22 49 48 90 48 23 0 30 4 30 20 0 23 -37 36 -75 26 -18 -5 -25 -2 -25 9 0
19 88 21 113 3z m101 -51 c-3 -107 -4 -117 -14 -117 -6 0 -10 37 -10 90 0 65
3 90 13 90 8 0 12 -19 11 -63z m-716 36 c15 -29 -3 -63 -33 -63 -17 0 -28 7
-34 23 -12 30 4 57 34 57 13 0 28 -8 33 -17z m336 -9 c10 -27 7 -43 -13 -54
-38 -20 -71 13 -51 51 13 23 55 25 64 3z m-54 -99 c0 -19 -56 -82 -65 -73 -6
5 53 87 63 88 1 0 2 -7 2 -15z m-242 -35 l32 -38 -40 -41 c-23 -23 -38 -46
-35 -51 3 -5 -6 -17 -20 -26 -30 -19 -55 -6 -55 30 0 30 19 46 55 46 17 0 41
7 53 16 l23 16 -35 36 c-20 19 -36 39 -36 44 0 19 27 4 58 -32z m402 15 c0 -8
-7 -15 -15 -15 -16 0 -20 12 -8 23 11 12 23 8 23 -8z m-266 -51 c11 -27 7 -43
-14 -54 -37 -20 -84 26 -59 56 16 19 65 18 73 -2z m86 -74 c22 -18 47 -29 66
-30 17 0 37 -7 44 -15 14 -17 5 -51 -16 -59 -21 -8 -54 11 -54 30 0 9 -21 35
-47 59 -53 49 -47 62 7 15z m-692 -3 c3 -14 -1 -18 -20 -15 -12 2 -24 11 -26
21 -3 14 1 18 20 15 12 -2 24 -11 26 -21z m-411 -3 c-3 -3 -12 -4 -19 -1 -8 3
-5 6 6 6 11 1 17 -2 13 -5z"/>
<path d="M1682 3120 c-30 -10 -73 -30 -96 -44 -42 -25 -116 -98 -116 -115 0
-5 32 4 71 21 85 36 184 58 262 58 31 0 57 4 57 8 0 17 -94 92 -115 92 -5 -1
-34 -9 -63 -20z"/>
<path d="M2060 2553 c-89 -13 -108 -24 -149 -87 -22 -33 -83 -104 -136 -156
-64 -64 -94 -101 -91 -112 5 -21 -19 -42 -39 -34 -8 3 -15 16 -15 30 0 19 6
25 27 28 43 5 271 263 251 284 -12 11 -143 -82 -225 -160 -102 -97 -233 -272
-233 -311 0 -10 34 -5 181 31 l149 36 106 114 c93 100 110 114 138 113 l31 -1
-31 -7 c-20 -5 -56 -35 -105 -86 -41 -43 -88 -93 -104 -111 -28 -28 -48 -36
-209 -74 l-178 -43 -33 -51 c-17 -28 -56 -96 -85 -151 -29 -55 -78 -144 -107
-198 -30 -54 -53 -101 -50 -103 2 -3 35 0 73 6 86 13 67 -7 297 315 11 16 50
30 153 54 83 20 148 42 160 53 18 16 23 17 33 4 17 -21 6 -35 -27 -33 -15 1
-87 -14 -160 -32 -151 -38 -130 -20 -265 -218 -91 -132 -96 -128 93 -84 240
56 558 184 608 244 10 12 24 23 32 25 28 6 80 65 74 84 -3 9 2 30 10 45 l15
28 -6 -39 c-8 -51 10 -46 60 20 62 82 81 143 81 264 1 94 -2 110 -26 155 -32
61 -102 129 -149 143 -41 12 -115 20 -149 15z m13 -110 c-7 -2 -21 -2 -30 0
-10 3 -4 5 12 5 17 0 24 -2 18 -5z m-73 -10 c-8 -3 -26 -15 -40 -27 l-25 -21
24 28 c14 15 32 27 40 26 14 0 14 -1 1 -6z m298 -64 c2 -11 -20 -17 -100 -27
-138 -16 -166 -14 -48 5 52 8 102 21 110 29 17 17 34 14 38 -7z m56 -98 c3 -5
0 -11 -8 -14 -15 -6 -26 1 -26 15 0 11 27 10 34 -1z m-235 -168 c-38 -47 -63
-73 -68 -68 -2 3 13 23 34 45 40 41 58 53 34 23z m157 -59 c-4 -9 -9 -15 -11
-12 -3 3 -3 13 1 22 4 9 9 15 11 12 3 -3 3 -13 -1 -22z m-846 -174 c-11 -22
-23 -40 -25 -40 -3 0 4 18 15 40 11 22 23 40 25 40 3 0 -4 -18 -15 -40z m710
-5 c0 -8 -4 -15 -10 -15 -5 0 -10 7 -10 15 0 8 5 15 10 15 6 0 10 -7 10 -15z
m-410 -171 c0 -19 -28 -30 -42 -16 -8 8 -8 15 1 26 14 17 41 10 41 -10z"/>
<path d="M1980 3130 c0 -13 7 -20 20 -20 13 0 20 7 20 20 0 13 -7 20 -20 20
-13 0 -20 -7 -20 -20z"/>
<path d="M986 1024 c-22 -21 -20 -47 4 -69 18 -17 21 -17 45 -1 15 10 25 26
25 39 0 44 -43 62 -74 31z"/>
<path d="M2756 817 c-32 -23 -14 -49 31 -45 33 3 38 6 38 28 0 19 -6 26 -25
28 -14 2 -34 -3 -44 -11z"/>
<path d="M151 2564 c0 -11 3 -14 6 -6 3 7 2 16 -1 19 -3 4 -6 -2 -5 -13z"/>
<path d="M137 2513 c-4 -3 -7 -13 -7 -22 1 -13 3 -13 11 2 11 19 8 33 -4 20z"/>
<path d="M120 2459 c0 -5 5 -7 10 -4 6 3 10 8 10 11 0 2 -4 4 -10 4 -5 0 -10
-5 -10 -11z"/>
</g>
</svg>
